<svg xmlns="http://www.w3.org/2000/svg" width="40.469" height="39.97" viewBox="0 0 40.469 39.97">
  <defs>
    <style>
      .cls-1 {
        fill: #4b75a4;
        fill-rule: evenodd;
      }
    </style>
  </defs>
  <path id="G_" data-name="G+" class="cls-1" d="M811.115,3515.93c0,2.93-1.834,5.25-7.029,5.43a20.241,20.241,0,0,1-7.39-7.13c0.937-2.29,3.863-4.03,7.209-3.99a8.864,8.864,0,0,1,2.639.42c2.211,1.51,3.993,2.46,4.441,4.19A4.614,4.614,0,0,1,811.115,3515.93ZM814.08,3484a20.328,20.328,0,0,0-14.814,6.36,10.569,10.569,0,0,1,5.018-1.27h10.139l-2.265,2.35H809.5a6.3,6.3,0,0,1,2.877,5.66,6.806,6.806,0,0,1-3,5.35c-1.711,1.32-2.036,1.87-2.036,2.99,0,0.96,2.045,2.39,2.985,3.08,3.275,2.43,3.938,3.95,3.938,6.98,0,3.08-2.726,6.14-7.349,7.17A20.038,20.038,0,1,0,814.08,3484Zm10.122,14.99v4.99h-2.53v-4.99h-5.061v-2.5h5.061v-5h2.53v5h5.062v2.5H824.2Zm-15.9-1.74c0.472,3.54-1.1,5.82-3.833,5.74s-5.33-2.56-5.8-6.1,1.361-6.25,4.094-6.17S807.827,3493.71,808.3,3497.25Zm-5.728,11.81a11.157,11.157,0,0,0-7.23,2.49,19.822,19.822,0,0,1-.464-13.91,7.192,7.192,0,0,0,7.63,6.88c0.337,0,.663-0.02.984-0.04a4.193,4.193,0,0,0-.539,1.95,3.483,3.483,0,0,0,1.458,2.61C803.8,3509.04,803.212,3509.06,802.57,3509.06Z" transform="translate(-793.844 -3484)"/>
</svg>
