<svg xmlns="http://www.w3.org/2000/svg" width="40.625" height="40" viewBox="0 0 40.625 40">
  <defs>
    <style>
      .cls-1 {
        fill: #4b75a4;
        fill-rule: evenodd;
      }
    </style>
  </defs>
  <path id="In" class="cls-1" d="M907.686,3484A20,20,0,1,0,928,3504,20.155,20.155,0,0,0,907.686,3484ZM919,3501.74v9.01a4.258,4.258,0,0,1-4.251,4.25H901.253a4.257,4.257,0,0,1-4.25-4.25v-13.5a4.257,4.257,0,0,1,4.25-4.25h13.492a4.258,4.258,0,0,1,4.251,4.25v4.49Zm-4.983,2.26a6.014,6.014,0,1,1-11.586-2.26h-3.282v9.01a2.1,2.1,0,0,0,2.107,2.1h13.492a2.1,2.1,0,0,0,2.107-2.1v-9.01h-3.283A5.99,5.99,0,0,1,914.013,3504Zm2.438-4.74v-3.72h-0.486l-3.243.01,0.013,3.73ZM908,3507.87a3.866,3.866,0,1,0-3.87-3.87A3.879,3.879,0,0,0,908,3507.87Z" transform="translate(-887.375 -3484)"/>
</svg>
