<svg xmlns="http://www.w3.org/2000/svg" width="76.282" height="76" viewBox="0 0 76.282 76">
  <defs>
    <style>
      .cls-1 {
        fill: #4b75a4;
        fill-rule: evenodd;
      }
    </style>
  </defs>
  <path id="In" class="cls-1" d="M964.587,3448a38,38,0,1,0,38.143,38A38.069,38.069,0,0,0,964.587,3448Zm-10.027,55.03h-8.936v-28.29h8.936v28.29Zm-4.467-32.16h-0.06A5.085,5.085,0,1,1,950.093,3470.87Zm36.675,32.16h-8.932v-15.14c0-3.8-1.294-6.4-4.524-6.4a4.914,4.914,0,0,0-4.582,3.44,6.664,6.664,0,0,0-.3,2.29v15.81H959.5s0.117-25.64,0-28.3h8.931v4.02a8.8,8.8,0,0,1,8.049-4.68c5.879,0,10.287,4.04,10.287,12.74v16.22Zm-18.393-24.19a0.9,0.9,0,0,1,.057-0.09v0.09h-0.057Z" transform="translate(-926.438 -3448)"/>
</svg>
