<svg xmlns="http://www.w3.org/2000/svg" width="40.625" height="40" viewBox="0 0 40.625 40">
  <defs>
    <style>
      .cls-1 {
        fill: #4b75a4;
        fill-rule: evenodd;
      }
    </style>
  </defs>
  <path id="Tw" class="cls-1" d="M954.686,3484A20,20,0,1,0,975,3504,20.155,20.155,0,0,0,954.686,3484Zm11.625,10.39a10.093,10.093,0,0,1-3.259,1.29,5.016,5.016,0,0,0-3.743-1.68,5.215,5.215,0,0,0-5.129,5.3,5.519,5.519,0,0,0,.132,1.21,14.4,14.4,0,0,1-10.57-5.54,5.43,5.43,0,0,0,1.587,7.08,4.984,4.984,0,0,1-2.323-.67v0.07a5.267,5.267,0,0,0,4.113,5.2,5.007,5.007,0,0,1-1.351.18,5.117,5.117,0,0,1-.965-0.09,5.161,5.161,0,0,0,4.79,3.68,10.091,10.091,0,0,1-6.369,2.27,9.888,9.888,0,0,1-1.224-.07,14.207,14.207,0,0,0,7.862,2.38c9.433,0,14.592-8.08,14.592-15.09l-0.017-.68a10.517,10.517,0,0,0,2.563-2.75,9.8,9.8,0,0,1-2.944.84A5.337,5.337,0,0,0,966.311,3494.39Z" transform="translate(-934.375 -3484)"/>
</svg>
