<svg id="Layer_1" width="232" data-name="Layer 1" xmlns="http://www.w3.org/2000/svg" viewBox="0 0 235.97 76.13">
    <defs>
        <style>.cls-1{fill:#5b5b5b;}.cls-2{fill:#4b75a4;}.cls-3{fill:#fefefe;}</style>
    </defs>
    <title>Logo_bigEN2</title>
    <g id="Layer_1-2" data-name="Layer_1">
        <path class="cls-1"
              d="M1.09,75.87c0,.05-.05.05-.05.1a.18.18,0,0,1-.1.05.4.4,0,0,0-.16.05H.26A.19.19,0,0,0,.1,76C.05,76,.05,76,0,76V68.18c0-.05,0-.05.05-.1L.1,68c.05,0,.1-.05.21-.05H.78A.23.23,0,0,1,.94,68a.18.18,0,0,1,.1.05c0,.05.05.05.05.1Z"
              transform="translate(0 0)"/>
        <path id="_1" data-name="1" class="cls-1"
              d="M9,68.49c0,.05-.05.1-.05.16v.16l-.1.1H6.55V76c-.05,0-.05.05-.1.05a.19.19,0,0,0-.16.05H5.77A.19.19,0,0,0,5.61,76a.18.18,0,0,1-.1-.05V68.91H3.17l-.1-.1v-.16A.19.19,0,0,1,3,68.49c0-.1,0-.16.05-.21v-.16l.1-.1H8.89l.1.1v.16C9,68.34,9,68.39,9,68.49Z"
              transform="translate(0 0)"/>
        <path id="_2" data-name="2" class="cls-1"
              d="M30.19,74.88v.31a.16.16,0,0,0-.05.1c0,.05-.05.05-.1.1a1.42,1.42,0,0,1-.26.21,4.68,4.68,0,0,0-.47.26l-.68.16a2.29,2.29,0,0,1-.83.1,4.51,4.51,0,0,1-1.46-.26,2.21,2.21,0,0,1-1-.78,2.88,2.88,0,0,1-.68-1.25,5.66,5.66,0,0,1-.26-1.71,6,6,0,0,1,.26-1.77A3.75,3.75,0,0,1,25.36,69a3.39,3.39,0,0,1,1.09-.83,4.51,4.51,0,0,1,1.46-.26,2.75,2.75,0,0,1,.68.05l.62.16a1.36,1.36,0,0,1,.47.26.8.8,0,0,1,.31.21c.05.05.1.05.1.1s.05.05.05.1a.19.19,0,0,0,.05.16v.16c0,.1,0,.16-.05.21v.16a.16.16,0,0,0-.05.1c-.05,0-.05.05-.1.05a.47.47,0,0,1-.26-.16c-.1-.05-.21-.16-.36-.26a2.25,2.25,0,0,0-.62-.26,2.15,2.15,0,0,0-.83-.1,2.11,2.11,0,0,0-1,.21,1.81,1.81,0,0,0-.78.62,2.9,2.9,0,0,0-.47,1,5.8,5.8,0,0,0-.16,1.4,5.36,5.36,0,0,0,.16,1.35,2.9,2.9,0,0,0,.47,1,1.7,1.7,0,0,0,.78.57,2,2,0,0,0,1,.21,3.62,3.62,0,0,0,.83-.1,3.77,3.77,0,0,0,.62-.26,4.79,4.79,0,0,1,.42-.26.47.47,0,0,1,.26-.16c.05,0,.05,0,.1.05v.05a.19.19,0,0,1,.05.16Z"
              transform="translate(0 0)"/>
        <path id="_3" data-name="3" class="cls-1"
              d="M38.4,75.66a.39.39,0,0,1,.05.21.19.19,0,0,1-.05.16.4.4,0,0,0-.16.05h-.62c-.05,0-.1-.05-.16-.05s-.05-.05-.1-.05,0-.05-.05-.1l-.68-1.92H33.31l-.68,1.92a.16.16,0,0,1-.05.1.05.05,0,0,0-.05.05.39.39,0,0,0-.21.05h-.57c-.05-.05-.1-.05-.16-.1a.18.18,0,0,1-.05-.1c0-.05.05-.1.05-.21l2.7-7.48c0-.05.05-.05.05-.1s.1-.05.16-.05.1-.05.16-.05h.68c.05,0,.16.05.21.05a.18.18,0,0,1,.1.05.16.16,0,0,1,.05.1ZM35,69.06h0l-1.4,4h2.81Z"
              transform="translate(0 0)"/>
        <path id="_4" data-name="4" class="cls-1"
              d="M46.72,71.92a6.39,6.39,0,0,1-.26,1.82,4.54,4.54,0,0,1-.78,1.3,3.75,3.75,0,0,1-1.25.73,4.69,4.69,0,0,1-1.77.26H40.95c-.1,0-.21,0-.26-.1a.31.31,0,0,1-.16-.31V68.44a.31.31,0,0,1,.16-.31c.05-.1.16-.1.26-.1h1.82a4.69,4.69,0,0,1,1.77.26,2.67,2.67,0,0,1,1.2.78,3.08,3.08,0,0,1,.73,1.2A5.58,5.58,0,0,1,46.72,71.92ZM45.57,72a4.55,4.55,0,0,0-.16-1.25,2.64,2.64,0,0,0-.47-.94,2.24,2.24,0,0,0-.88-.68,3.52,3.52,0,0,0-1.35-.21H41.62v6.24h1.09a3.25,3.25,0,0,0,1.3-.21,2,2,0,0,0,.88-.57,2.54,2.54,0,0,0,.52-1A5.8,5.8,0,0,0,45.57,72Z"
              transform="translate(0 0)"/>
        <path id="_5" data-name="5" class="cls-1"
              d="M53.63,75.61a.19.19,0,0,1-.05.16v.16l-.1.1H49.52a.34.34,0,0,1-.26-.1.44.44,0,0,1-.1-.31V68.44a.44.44,0,0,1,.1-.31.34.34,0,0,1,.26-.1h3.9l.1.1v.1a.39.39,0,0,1,.05.21c0,.1,0,.16-.05.21v.16c-.05.05-.05.05-.1.05a.05.05,0,0,1-.05.05H50.2V71.4h2.7c.05,0,.05,0,.1.05l.05.05a.19.19,0,0,1,.05.16v.42c0,.05,0,.05-.05.1a.05.05,0,0,1-.05.05c-.05.05-.05.05-.1.05H50.2v2.86h3.22a.05.05,0,0,1,.05.05c.05,0,.05,0,.1.05v.16C53.63,75.46,53.63,75.51,53.63,75.61Z"
              transform="translate(0 0)"/>
        <path id="_6" data-name="6" class="cls-1"
              d="M64.85,75.87V76c-.05,0-.05.05-.1.05a.19.19,0,0,0-.16.05h-.52a.19.19,0,0,0-.16-.05.18.18,0,0,1-.1-.05V68.91h-.05l-2.81,7L60.9,76a.18.18,0,0,1-.1.05c-.05,0-.1.05-.16.05h-.42a.4.4,0,0,0-.16-.05A.18.18,0,0,1,60,76a.05.05,0,0,1-.05-.05l-2.7-7h0v7c0,.05,0,.05-.05.1l-.05.05a.39.39,0,0,0-.21.05h-.52a.19.19,0,0,0-.16-.05L56.17,76c-.05-.05-.05-.05-.05-.1V68.49a.4.4,0,0,1,.16-.36.38.38,0,0,1,.31-.1h1a1.14,1.14,0,0,1,.26.16.41.41,0,0,1,.21.21.4.4,0,0,1,.1.26l2.34,5.82h0l2.39-5.77a.85.85,0,0,1,.16-.31.41.41,0,0,1,.21-.21.72.72,0,0,1,.21-.16h1.14c.05.05.1.05.1.1s.1.1.1.16.05.1.05.21Z"
              transform="translate(0 0)"/>
        <path id="_7" data-name="7" class="cls-1"
              d="M70.31,72.91V76a.18.18,0,0,1-.1.05.26.26,0,0,0-.16.05h-.52a.19.19,0,0,0-.16-.05c-.05,0-.05-.05-.1-.05V72.91L67,68.39a.39.39,0,0,1-.05-.21c-.05-.05,0-.1,0-.16s.1-.05.16-.05h.68c.05,0,.1.05.16.05a.18.18,0,0,1,.1.05c0,.05.05.05.05.1l1.14,2.29c.1.26.21.47.31.73s.21.47.31.73h0a4.07,4.07,0,0,0,.26-.73c.1-.21.21-.47.31-.68l1.14-2.34c0-.05,0-.05.05-.1a.18.18,0,0,1,.1-.05.23.23,0,0,1,.16-.05h.62c.05,0,.1.05.16.05a.19.19,0,0,1,.05.16c0,.05-.05.1-.1.21Z"
              transform="translate(0 0)"/>
        <path id="_8" data-name="8" class="cls-1"
              d="M22.71,75.66a.39.39,0,0,1,.05.21.19.19,0,0,1-.05.16.4.4,0,0,0-.16.05h-.62c-.05,0-.1-.05-.16-.05s-.05-.05-.1-.05,0-.05-.05-.1l-.68-1.92H17.62l-.68,1.92a.16.16,0,0,1-.05.1.16.16,0,0,0-.1.05.4.4,0,0,0-.16.05h-.57C16,76,16,76,15.9,76s-.05-.05-.05-.1.05-.1.05-.21l2.7-7.48c0-.05.05-.05.05-.1s.1-.05.16-.05.1-.05.16-.05h.68c.05,0,.16.05.21.05s.05.05.1.05a.16.16,0,0,1,.05.1Zm-3.43-6.6h0l-1.4,4h2.81Z"
              transform="translate(0 0)"/>
        <polygon class="cls-2" points="207.13 16.68 201.83 16.68 184.63 62.41 189.93 62.41 207.13 16.68"/>
        <polygon class="cls-2"
                 points="209.47 55.86 231.56 41.31 209.47 24.68 209.47 18.14 235.97 38.82 235.97 44.27 209.47 62.51 209.47 55.86"/>
        <path class="cls-2"
              d="M96.19,0h41.62a5.08,5.08,0,0,1,5,5v64.8a5,5,0,0,1-5,5H96.19a5,5,0,0,1-5-5V5A5,5,0,0,1,96.19,0Z"
              transform="translate(0 0)"/>
        <path class="cls-1"
              d="M5.61,62.57V16.94H.26V62.57ZM159.17,41.83h11.38c-1.35-4.68-2.91-10.29-5.72-20.11C162.29,30.77,160.62,36.59,159.17,41.83Zm12.89,5.35H157.71V47c-1.3,4.42-2.6,9-4.47,15.59h-6.39l13.77-45.63h8.73L183,62.57h-6.65C174.39,55.5,173.2,51.19,172.06,47.19ZM49.52,62.57V16.94h-6c0,12.84-.57,26.66.68,39.39l-18-39.39H16.84V62.57h6c0-13.1.31-26.29-.78-39.34L39.91,62.57ZM84.18,21.83l1.14-4.88H55.81l-1,4.88H67V62.57h5.3V21.83Z"
              transform="translate(0 0)"/>
        <path class="cls-3"
              d="M103.31,62.57V16.94H97.43V62.57Zm35.18-40.74,1.09-4.88h-30l-1,4.88h12.21V62.57h5.77V21.83Z"
              transform="translate(0 0)"/>
    </g>
</svg>