<svg xmlns="http://www.w3.org/2000/svg" width="29.188" height="28.97" viewBox="0 0 29.188 28.97">
  <defs>
    <style>
      .cls-1 {
        fill: #bcbcbc;
        fill-rule: evenodd;
        opacity: 0.8;
      }
    </style>
  </defs>
  <path id="G_" data-name="G+" class="cls-1" d="M465.483,3709.15c0,2.12-1.322,3.8-5.066,3.94a14.627,14.627,0,0,1-5.327-5.18c0.675-1.65,2.784-2.91,5.2-2.89a6.389,6.389,0,0,1,1.9.31c1.594,1.1,2.879,1.78,3.2,3.04A3.279,3.279,0,0,1,465.483,3709.15ZM467.62,3686a14.626,14.626,0,0,0-10.677,4.61,7.612,7.612,0,0,1,3.616-.92h7.308l-1.633,1.7h-1.918a4.583,4.583,0,0,1,2.073,4.11,4.919,4.919,0,0,1-2.159,3.87c-1.234.96-1.468,1.36-1.468,2.17,0,0.7,1.474,1.73,2.152,2.24,2.36,1.76,2.838,2.86,2.838,5.06,0,2.23-1.965,4.44-5.3,5.2a14.728,14.728,0,0,0,5.165.93A14.485,14.485,0,1,0,467.62,3686Zm7.3,10.86v3.63h-1.824v-3.63h-3.648v-1.81h3.648v-3.62h1.824v3.62h3.648v1.81h-3.648Zm-11.463-1.26c0.34,2.57-.794,4.23-2.763,4.17s-3.842-1.86-4.182-4.42,0.981-4.54,2.951-4.48S463.113,3693.04,463.453,3695.6Zm-4.129,8.57a8.064,8.064,0,0,0-5.211,1.8,14.433,14.433,0,0,1-.334-10.08,5.192,5.192,0,0,0,5.5,4.99c0.243,0,.478-0.02.709-0.03a3.047,3.047,0,0,0-.388,1.41,2.526,2.526,0,0,0,1.05,1.89C460.21,3704.15,459.787,3704.17,459.324,3704.17Z" transform="translate(-453.031 -3686)"/>
</svg>
