<svg id="Layer_1" width="95" data-name="Layer 1" xmlns="http://www.w3.org/2000/svg" viewBox="0 0 91.55 29.09"><defs><style>.cls-1{fill:#4b75a4;}.cls-2{fill:#5b5b5b;}.cls-3{fill:#fefefe;}</style></defs><title>hamburgerlogo</title><g id="Layer_1-2" data-name="Layer_1"><polygon class="cls-1" points="80.32 6.48 78.27 6.48 71.57 24.24 73.63 24.24 80.32 6.48"/><polygon class="cls-1" points="81.24 21.7 89.82 16.03 81.24 9.61 81.24 7.07 91.55 15.06 91.55 17.22 81.24 24.29 81.24 21.7"/><path class="cls-1" d="M37.27,0H53.46A2,2,0,0,1,55.4,1.94V27.15a2,2,0,0,1-1.94,1.94H37.27a2,2,0,0,1-1.94-1.94V1.94A1.94,1.94,0,0,1,37.27,0Z" transform="translate(-0.02 0)"/><path class="cls-2" d="M2.13,24.29V6.59H0v17.7Zm59.59-8h4.43c-.49-1.84-1.13-4-2.21-7.83C63,11.93,62.31,14.2,61.72,16.25Zm5,2.11H61.18v-.11c-.49,1.73-1,3.51-1.73,6H57l5.34-17.7h3.35L71,24.29H68.41C67.66,21.54,67.17,19.86,66.74,18.35ZM19.13,24.29V6.59H16.81c0,5-.22,10.36.27,15.28l-7-15.28H6.44v17.7H8.77c0-5.07.16-10.2-.27-15.28l6.91,15.28ZM32.62,8.47l.43-1.89H21.61l-.38,1.89h4.7V24.29H28V8.47Z" transform="translate(-0.02 0)"/><path class="cls-3" d="M40,24.29V6.59H37.75v17.7ZM53.68,8.47l.43-1.89H42.5l-.38,1.89h4.7V24.29h2.27V8.47Z" transform="translate(-0.02 0)"/></g></svg>