<svg xmlns="http://www.w3.org/2000/svg" width="29.281" height="29" viewBox="0 0 29.281 29">
  <defs>
    <style>
      .cls-1 {
        fill: #c9c9c9;
        fill-rule: evenodd;
      }
    </style>
  </defs>
  <path id="Ins" class="cls-1" d="M477.359,3725A14.5,14.5,0,1,0,492,3739.5,14.57,14.57,0,0,0,477.359,3725Zm8.6,13.37v6.51a3.08,3.08,0,0,1-3.076,3.08h-9.767a3.081,3.081,0,0,1-3.077-3.08v-9.76a3.081,3.081,0,0,1,3.077-3.08h9.766a3.081,3.081,0,0,1,3.077,3.08v3.25Zm-3.606,1.63a4.354,4.354,0,0,1-8.707,0,4.286,4.286,0,0,1,.32-1.63H471.59v6.51a1.525,1.525,0,0,0,1.525,1.53h9.767a1.525,1.525,0,0,0,1.525-1.53v-6.51H482.03A4.269,4.269,0,0,1,482.353,3740ZM478,3742.8a2.808,2.808,0,0,0,2.8-2.8A2.8,2.8,0,1,0,478,3742.8Zm6.118-6.23v-2.7h-0.351l-2.348.01,0.01,2.7Z" transform="translate(-462.719 -3725)"/>
</svg>
