<svg id="Layer_1" width="232" data-name="Layer 1" xmlns="http://www.w3.org/2000/svg" viewBox="0 0 235.95 76.95"><defs><style>.cls-1{fill:#5b5b5b;}.cls-2{fill:#4b75a4;}.cls-3{fill:#fefefe;}</style></defs><title>Logo_bigRU2</title><g id="Layer_1-2" data-name="Layer_1"><path class="cls-1" d="M5.31,74.93V75a.16.16,0,0,0-.1.05H4.48L4.43,75c-.05-.05-.05-.05-.05-.1v-5c0-.1,0-.26.05-.31H4.38c0,.05-.05.1-.05.16l-.16.16a.27.27,0,0,1-.1.21.27.27,0,0,0-.1.21L.89,74.93l-.1.1a.05.05,0,0,1-.05.05H.11L0,75V68.07C.06,68,.06,68,.11,68A.19.19,0,0,1,.27,68H.69c.1,0,.16,0,.16.05s.05,0,.1.05v5.4h0a3,3,0,0,1,.21-.36,1.58,1.58,0,0,1,.26-.36l3.07-4.62c0-.05,0-.05.05-.05A.05.05,0,0,1,4.58,68,.19.19,0,0,1,4.74,68H5.1a.19.19,0,0,1,.16.05.05.05,0,0,1,.05.05v6.86Z" transform="translate(-0.01)"/><path id="_1" data-name="1" class="cls-1" d="M65.74,74.93V75c-.05,0-.05,0-.1.05h-.73c-.05-.05-.05-.05-.1-.05v-5.4h0c-.05.05-.05.1-.1.16s-.05.1-.1.16-.05.16-.1.21a.72.72,0,0,0-.16.21l-3.07,4.57c0,.05,0,.05-.05.1l-.05.05h-.68c0-.05-.05-.05-.05-.1V68.07c0-.05.05-.05.1-.05s.05-.05.16-.05h.42a.19.19,0,0,1,.16.05c.05,0,.05,0,.05.05a.05.05,0,0,1,.05.05v5a.88.88,0,0,1-.05.36h.05a3,3,0,0,1,.21-.36c.05-.1.16-.26.21-.36l3.07-4.62.05-.05C65,68,65,68,65,68s.05-.05.1-.05h.42c.05,0,.1,0,.1.05s.05,0,.1.05v6.86Z" transform="translate(-0.01)"/><path id="_2" data-name="2" class="cls-1" d="M72.13,74.93V75c-.05,0-.05,0-.1.05H71.3c-.05-.05-.05-.05-.1-.05V72h-.73a1.94,1.94,0,0,0-.62.1,1.09,1.09,0,0,0-.68.68,4.83,4.83,0,0,0-.26.52l-.57,1.61c-.05.05-.05.1-.1.1s-.05.05-.05.1H67.4c-.05-.05-.05-.05-.1-.05v-.21c.05-.05.05-.16.1-.26L68,73.06a4.12,4.12,0,0,1,.21-.47,2.9,2.9,0,0,1,.26-.42,1.38,1.38,0,0,1,.31-.26,1.09,1.09,0,0,1,.31-.21c-.21-.05-.42-.16-.57-.21a1.83,1.83,0,0,1-.47-.36,1.63,1.63,0,0,1-.26-.52,1.94,1.94,0,0,1-.1-.62,1.9,1.9,0,0,1,.16-.78,2,2,0,0,1,.47-.68,1.92,1.92,0,0,1,.73-.42,4.2,4.2,0,0,1,1.3-.16h1.45a.4.4,0,0,1,.26.1.44.44,0,0,1,.1.31Zm-.94-6.18h-.88a3.39,3.39,0,0,0-.88.1,2.11,2.11,0,0,0-.47.26.84.84,0,0,0-.21.36.85.85,0,0,0-.1.52,1.52,1.52,0,0,0,.1.47.6.6,0,0,0,.26.36,1.06,1.06,0,0,0,.47.31,3.21,3.21,0,0,0,.78.05h.94Z" transform="translate(-0.01)"/><path id="_3" data-name="3" class="cls-1" d="M11.81,68.38v.21c0,.05,0,.05-.05.1s0,.05-.05.05a.05.05,0,0,1-.05.05h-2V75a.16.16,0,0,0-.1.05H8.79L8.74,75c-.05-.05-.05-.05-.05-.1V68.8h-2c-.05,0-.05,0-.1-.05l-.05-.05v-.1c-.05-.05-.05-.1-.05-.21a.19.19,0,0,1,.05-.16v-.16A.05.05,0,0,0,6.61,68c.05,0,.05-.05.1-.05h4.94l.05.05a.05.05,0,0,1,.05.05.19.19,0,0,1,.05.16Z" transform="translate(-0.01)"/><path id="_4" data-name="4" class="cls-1" d="M23.39,74.72c0,.1.05.16.05.21a.18.18,0,0,1-.05.1.19.19,0,0,1-.16.05h-.68a.18.18,0,0,1-.1-.05c0-.05,0-.05-.05-.1l-.57-1.71h-3l-.57,1.71a.05.05,0,0,0-.05.05c0,.05-.05.05-.1.1h-.62c-.1,0-.16,0-.16-.05s-.05-.05-.05-.1.05-.1.05-.21l2.39-6.55a.18.18,0,0,1,.05-.1c0-.05.05-.05.1-.05a.19.19,0,0,1,.16-.05h.57c.1,0,.16,0,.21.05s.05,0,.1.05a.18.18,0,0,1,.05.1ZM20.33,69h0l-1.25,3.53h2.49Z" transform="translate(-0.01)"/><path id="_5" data-name="5" class="cls-1" d="M29.42,74.93V75a.16.16,0,0,0-.1.05h-.62a.19.19,0,0,1-.16-.05.05.05,0,0,1-.05-.05c-.05,0-.05-.05-.05-.1l-.68-1.71a2.25,2.25,0,0,0-.26-.62,2.4,2.4,0,0,0-.36-.36,1.06,1.06,0,0,0-.47-.26,2.23,2.23,0,0,0-.62-.1h-.36v3.12c0,.05,0,.05-.05.1l-.05.05h-.73a.16.16,0,0,0-.1-.05v-7c0-.05.05-.05.1-.05S24.9,68,25,68h.47a.19.19,0,0,1,.16.05c.05,0,.05,0,.05.05a.05.05,0,0,1,.05.05V71H26a1.6,1.6,0,0,0,.57-.1,1.28,1.28,0,0,0,.47-.21,2.88,2.88,0,0,0,.31-.42,1.92,1.92,0,0,0,.26-.57l.57-1.56v-.1c.05,0,.05-.05.1-.05s.1-.05.16-.05H29a.19.19,0,0,1,.16.05.05.05,0,0,1,.05.05v.21c0,.05-.05.1-.05.16l-.57,1.45a2.25,2.25,0,0,1-.26.62,1.82,1.82,0,0,1-.26.42,1.38,1.38,0,0,1-.31.26c-.16.05-.26.16-.42.16v.05a1.85,1.85,0,0,1,.47.21,1.66,1.66,0,0,1,.36.31,2.88,2.88,0,0,1,.31.42c.05.16.16.36.26.62l.68,1.66a.39.39,0,0,1,.05.21Z" transform="translate(-0.01)"/><path id="_6" data-name="6" class="cls-1" d="M36.28,74.72a.39.39,0,0,1,.05.21c0,.05,0,.1-.05.1s-.05.05-.16.05h-.68A.05.05,0,0,1,35.4,75c-.05-.05-.05-.05-.05-.1l-.62-1.71h-3l-.57,1.71a.05.05,0,0,1-.05.05c0,.05,0,.05-.05.1h-.68a.19.19,0,0,1-.16-.05v-.1a.39.39,0,0,1,.05-.21l2.34-6.55a.16.16,0,0,0,.05-.1.16.16,0,0,1,.1-.05c.05-.05.1-.05.21-.05h.57a.19.19,0,0,1,.16.05c.05,0,.1,0,.1.05s.05.05.05.1ZM33.21,69h0L32,72.48h2.44Z" transform="translate(-0.01)"/><path id="_7" data-name="7" class="cls-1" d="M43.66,76.8v.05a.05.05,0,0,1-.05.05c-.05,0-.1.05-.16.05h-.36c-.05,0-.1-.05-.16-.05a.05.05,0,0,1-.05-.05V75.08H37.53v1.77c-.05.05-.05.05-.1.05a.18.18,0,0,1-.1.05H36.9a.18.18,0,0,0-.1-.05,381820.28,381820.28,0,0,0-.1-.1V74.56c0-.1.05-.16.05-.21s.1-.05.21-.05h.42a1.13,1.13,0,0,1,.26-.42,4.83,4.83,0,0,0,.26-.52,3.55,3.55,0,0,0,.21-.68,8.66,8.66,0,0,0,.26-1c.05-.36.16-.83.21-1.4s.16-1.2.26-1.92a.56.56,0,0,1,.1-.31.27.27,0,0,1,.21-.1h3.27a.4.4,0,0,1,.26.1.56.56,0,0,1,.1.31V74.3h.68c.1,0,.16,0,.16.05s.05.1.05.21Zm-1.87-8H39.71c-.05.68-.16,1.25-.21,1.77s-.16.94-.26,1.3a4.06,4.06,0,0,1-.21,1,4.33,4.33,0,0,1-.21.62,1.87,1.87,0,0,1-.26.47c-.05.1-.16.26-.21.36h3.43Z" transform="translate(-0.01)"/><path id="_8" data-name="8" class="cls-1" d="M49,74.67v.21c0,.05,0,.05-.05.1s0,.05-.05.05a.05.05,0,0,1-.05.05H45.37a.39.39,0,0,1-.21-.1.31.31,0,0,1-.16-.31V68.38a.31.31,0,0,1,.16-.31.39.39,0,0,1,.21-.1h3.38l.05.05c.05,0,.05.05.1.05v.62c-.05,0-.05.05-.1.05l-.05.05H45.94V71h2.39c.05,0,.05,0,.1.05l.05.05c0,.05.05.05.05.1v.36a.18.18,0,0,1-.05.1c0,.05-.05.05-.05.1H45.94V74.3h2.91a.05.05,0,0,1,.05.05.19.19,0,0,1,.05.16Z" transform="translate(-0.01)"/><path id="_9" data-name="9" class="cls-1" d="M58.36,74.93V75c-.05,0-.05,0-.1.05h-.73L57.48,75c-.05-.05-.05-.05-.05-.1V68.74h0L54.93,75l-.05.05a.18.18,0,0,1-.1.05h-.62A.16.16,0,0,0,54,75,.05.05,0,0,0,54,75l-2.39-6.24h0V75c-.05,0-.05,0-.1.05h-.73c-.05-.05-.05-.05-.1-.05v-6.6a.75.75,0,0,1,.1-.36.74.74,0,0,1,.31-.1h.57c.1,0,.21.05.31.05s.16.05.21.1.16.1.16.21a1.14,1.14,0,0,1,.16.26l2,5.09h0l2.13-5.09a.4.4,0,0,1,.1-.26.72.72,0,0,1,.16-.21.39.39,0,0,1,.21-.1,2.25,2.25,0,0,1,.26-.05h.57c.05,0,.1.05.16.05s.1.05.16.05.05.1.1.16v6.7Z" transform="translate(-0.01)"/><polygon class="cls-2" points="207.11 16.68 201.81 16.68 184.62 62.4 189.91 62.4 207.11 16.68"/><polygon class="cls-2" points="209.45 55.86 231.53 41.31 209.45 24.68 209.45 18.13 235.95 38.81 235.95 44.27 209.45 62.51 209.45 55.86"/><path class="cls-2" d="M96.19,0h41.62a5.08,5.08,0,0,1,5,5V69.83a5,5,0,0,1-5,5H96.19a5,5,0,0,1-5-5V5A5,5,0,0,1,96.19,0Z" transform="translate(-0.01)"/><path class="cls-1" d="M5.62,62.56V16.94H.27V62.56ZM159.17,41.83h11.38c-1.35-4.68-2.91-10.29-5.72-20.11C162.28,30.76,160.62,36.58,159.17,41.83Zm12.89,5.35H157.71V47c-1.3,4.42-2.6,9-4.47,15.59h-6.39l13.77-45.62h8.73L183,62.56h-6.65C174.39,55.49,173.19,51.18,172.05,47.18ZM49.53,62.56V16.94h-6c0,12.83-.57,26.66.68,39.39l-18-39.39h-9.4V62.56h6c0-13.09.31-26.29-.78-39.33L39.92,62.56ZM84.19,21.82l1.14-4.88H55.82l-1,4.88H67V62.56h5.3V21.82Z" transform="translate(-0.01)"/><path class="cls-3" d="M103.31,62.56V16.94H97.44V62.56Zm35.18-40.74,1.09-4.88h-30l-1,4.88h12.21V62.56h5.77V21.82Z" transform="translate(-0.01)"/></g></svg>