<svg xmlns="http://www.w3.org/2000/svg" width="29.188" height="28.97" viewBox="0 0 29.188 28.97">
  <defs>
    <style>
      .cls-1 {
        fill: #bcbcbc;
        fill-rule: evenodd;
        opacity: 0.8;
      }
    </style>
  </defs>
  <path id="Tw" class="cls-1" d="M392.591,3686.03a14.485,14.485,0,1,0,14.591,14.48A14.534,14.534,0,0,0,392.591,3686.03Zm8.386,10.21c0.008,0.19.012,0.37,0.012,0.56a12.322,12.322,0,0,1-18.942,10.29,8.785,8.785,0,0,0,6.4-1.78,4.328,4.328,0,0,1-4.042-2.98,4.378,4.378,0,0,0,.814.07,4.284,4.284,0,0,0,1.14-.15,4.3,4.3,0,0,1-3.47-4.21v-0.05a4.455,4.455,0,0,0,1.96.54,4.294,4.294,0,0,1-1.925-3.58,4.229,4.229,0,0,1,.586-2.16,12.314,12.314,0,0,0,8.918,4.49,4.3,4.3,0,0,1,4.214-5.28,4.356,4.356,0,0,1,3.158,1.36,8.686,8.686,0,0,0,2.748-1.04,4.305,4.305,0,0,1-1.9,2.37,8.623,8.623,0,0,0,2.485-.67A8.68,8.68,0,0,1,400.977,3696.24Z" transform="translate(-378 -3686.03)"/>
</svg>
