<svg id="Layer_1" width="232" data-name="Layer 1" xmlns="http://www.w3.org/2000/svg" viewBox="0 0 92.01 30.23"><defs><style>.cls-1{isolation:isolate;font-size:4.35px;font-family:MyriadPro-Regular, Myriad Pro;}.cls-1,.cls-3{fill:#5b5b5b;}.cls-2{fill:#4b75a4;}.cls-4{fill:#fefefe;}</style></defs><title>Logo_bigUA</title><g id="Layer_1-2" data-name="Layer_1"><g id="_827950288" data-name=" 827950288"><text class="cls-1" transform="translate(0 29.14)">I</text><text class="cls-1" transform="translate(1.4 29.14)"><tspan xml:space="preserve">T  </tspan></text><text class="cls-1" transform="translate(5.76 29.14)">А</text><text class="cls-1" transform="translate(8.51 29.14)">К</text><text class="cls-1" transform="translate(11.15 29.14)">А</text><text class="cls-1" transform="translate(13.95 29.14)">Д</text><text class="cls-1" transform="translate(17.02 29.14)">Е</text><text class="cls-1" transform="translate(19.45 29.14)">М</text><text class="cls-1" transform="translate(23.43 29.14)">І</text><text class="cls-1" transform="translate(24.78 29.14)">Я</text><polygon class="cls-2" points="80.81 6.46 78.76 6.46 72.08 24.24 74.13 24.24 80.81 6.46"/><polygon class="cls-2" points="81.72 21.71 90.29 16.05 81.72 9.59 81.72 7.06 92.01 15.08 92.01 17.18 81.72 24.3 81.72 21.71"/><path class="cls-2" d="M37.36,0H53.52a2,2,0,0,1,2,1.94V27.15a2,2,0,0,1-2,1.94H37.36a2,2,0,0,1-1.94-1.94V1.94A1.93,1.93,0,0,1,37.36,0Z" transform="translate(0.35)"/><path class="cls-3" d="M2.18,24.3V6.57h-2V24.3Zm59.64-8.08h4.42c-.48-1.78-1.13-4-2.21-7.81C63.05,12,62.41,14.22,61.81,16.22Zm5,2.1H61.28v-.11c-.48,1.78-1,3.56-1.72,6.09H57.07L62.41,6.57H65.8L71.08,24.3H68.49C67.74,21.55,67.25,19.88,66.82,18.32Zm-47.57,6V6.57H16.94c0,5-.22,10.34.27,15.3l-7-15.3H6.54V24.3H8.86c0-5.06.16-10.24-.27-15.3l6.95,15.3ZM32.72,8.46l.43-1.89H21.68L21.3,8.46H26V24.3h2V8.46Z" transform="translate(0.35)"/><path class="cls-4" d="M40.16,24.3V6.57H37.84V24.3ZM53.79,8.46l.43-1.89H42.58L42.2,8.46h4.74V24.3h2.26V8.46Z" transform="translate(0.35)"/></g></g></svg>