<svg xmlns="http://www.w3.org/2000/svg" width="29.281" height="29" viewBox="0 0 29.281 29">
  <defs>
    <style>
      .cls-1 {
        fill: #bcbcbc;
        fill-rule: evenodd;
        opacity: 0.8;
      }
    </style>
  </defs>
  <path id="You" class="cls-1" d="M420.489,3701.57h1.161v6.22h1.1v-6.22h1.183v-1.02h-3.442v1.02Zm9.286,0.76a1.345,1.345,0,0,0-1.021.59v-2.37h-0.987v7.24h0.987v-0.52a1.365,1.365,0,0,0,1.021.6,0.784,0.784,0,0,0,.788-0.61,4.293,4.293,0,0,0,.1-1.09v-2.15a4.1,4.1,0,0,0-.1-1.08A0.784,0.784,0,0,0,429.775,3702.33Zm-0.1,3.92c0,0.49-.145.73-0.43,0.73a0.721,0.721,0,0,1-.492-0.24v-3.29a0.721,0.721,0,0,1,.492-0.24c0.285,0,.43.25,0.43,0.74v2.3Zm-3.75.27a0.86,0.86,0,0,1-.625.46,0.228,0.228,0,0,1-.231-0.23,2.966,2.966,0,0,1-.009-0.38v-3.97h-0.987v4.26a2.692,2.692,0,0,0,.087.8,0.606,0.606,0,0,0,.636.41,1.584,1.584,0,0,0,1.129-.67v0.59h0.987v-5.39h-0.987v4.12Zm0.847-9.11c0.321,0,.476-0.25.476-0.75v-2.3c0-.5-0.155-0.75-0.476-0.75s-0.476.25-.476,0.75v2.3C426.3,3697.16,426.451,3697.41,426.773,3697.41Zm0.666-11.41a14.5,14.5,0,1,0,14.64,14.5A14.57,14.57,0,0,0,427.439,3686Zm1.628,6.78h1v4.02a2.229,2.229,0,0,0,.012.38,0.228,0.228,0,0,0,.234.23,0.87,0.87,0,0,0,.63-0.46v-4.17h1v5.45h-1v-0.59a1.609,1.609,0,0,1-1.14.67,0.612,0.612,0,0,1-.643-0.41,2.682,2.682,0,0,1-.088-0.81v-4.31h0Zm-3.768,1.78a2.083,2.083,0,0,1,.312-1.28,1.488,1.488,0,0,1,2.326,0,2.105,2.105,0,0,1,.309,1.28v1.91a2.105,2.105,0,0,1-.309,1.28,1.488,1.488,0,0,1-2.326,0,2.083,2.083,0,0,1-.312-1.28v-1.91Zm-2.668-3.64,0.786,2.87,0.754-2.87h1.119l-1.331,4.35v2.96h-1.106v-2.96a17.987,17.987,0,0,0-.676-2.31c-0.233-.68-0.476-1.36-0.709-2.04h1.163Zm12.689,17.35a2.063,2.063,0,0,1-1.765,1.59,85.15,85.15,0,0,1-12.234,0,2.062,2.062,0,0,1-1.765-1.59,25.676,25.676,0,0,1,0-7.65,2.051,2.051,0,0,1,1.765-1.59,85.15,85.15,0,0,1,12.234,0,2.063,2.063,0,0,1,1.765,1.59A25.855,25.855,0,0,1,435.32,3708.27Zm-2.4-5.94a1.406,1.406,0,0,0-1.183.55,2.114,2.114,0,0,0-.3,1.27v1.89a2.061,2.061,0,0,0,.317,1.27,1.419,1.419,0,0,0,1.194.56,1.378,1.378,0,0,0,1.194-.59,1.362,1.362,0,0,0,.23-0.58c0.01-.1.021-0.32,0.021-0.63v-0.15h-1.006a6.534,6.534,0,0,1-.022.67,0.422,0.422,0,0,1-.441.39c-0.339,0-.5-0.25-0.5-0.75v-0.96h1.974v-1.12a2.128,2.128,0,0,0-.3-1.27A1.37,1.37,0,0,0,432.919,3702.33Zm0.483,2.13h-0.988v-0.5q0-.75.5-0.75c0.327,0,.492.25,0.492,0.75v0.5Z" transform="translate(-412.813 -3686)"/>
</svg>
